<?xml version="1.0" encoding="UTF-8" standalone="no"?>
<svg
   xmlns:dc="http://purl.org/dc/elements/1.1/"
   xmlns:cc="http://creativecommons.org/ns#"
   xmlns:rdf="http://www.w3.org/1999/02/22-rdf-syntax-ns#"
   xmlns:svg="http://www.w3.org/2000/svg"
   xmlns="http://www.w3.org/2000/svg"
   xmlns:sodipodi="http://sodipodi.sourceforge.net/DTD/sodipodi-0.dtd"
   xmlns:inkscape="http://www.inkscape.org/namespaces/inkscape"
   version="1.1"
   id="svg2"
   xml:space="preserve"
   width="128"
   height="128"
   viewBox="0 0 128 128"
   sodipodi:docname="LOGO_CLAVE_96x96.ai"><metadata
     id="metadata8"><rdf:RDF><cc:Work
         rdf:about=""><dc:format>image/svg+xml</dc:format><dc:type
           rdf:resource="http://purl.org/dc/dcmitype/StillImage" /></cc:Work></rdf:RDF></metadata><defs
     id="defs6"><clipPath
       clipPathUnits="userSpaceOnUse"
       id="clipPath18"><path
         d="M 0,96 H 96 V 0 H 0 Z"
         id="path16" /></clipPath></defs><sodipodi:namedview
     pagecolor="#ffffff"
     bordercolor="#666666"
     borderopacity="1"
     objecttolerance="10"
     gridtolerance="10"
     guidetolerance="10"
     inkscape:pageopacity="0"
     inkscape:pageshadow="2"
     inkscape:window-width="640"
     inkscape:window-height="480"
     id="namedview4" /><g
     id="g10"
     inkscape:groupmode="layer"
     inkscape:label="LOGO_CLAVE_96x96"
     transform="matrix(1.3333333,0,0,-1.3333333,0,128)"><g
       id="g12"><g
         id="g14"
         clip-path="url(#clipPath18)"><g
           id="g20"
           transform="translate(91.9582,24.6502)"><path
             d="m 0,0 c 0,-2.3 -1.896,-4.183 -4.212,-4.183 h -79.973 c -2.315,0 -4.211,1.883 -4.211,4.183 v 47.312 c 0,2.298 1.896,4.18 4.211,4.18 H -4.212 C -1.896,51.492 0,49.61 0,47.312 Z"
             style="fill:#ffffff;fill-opacity:1;fill-rule:nonzero;stroke:none"
             id="path22" /></g><g
           id="g24"
           transform="translate(7.7731,75.9515)"><path
             d="m 0,0 c -2.217,0 -4.021,-1.79 -4.021,-3.99 v -47.311 c 0,-2.201 1.804,-3.992 4.021,-3.992 h 79.973 c 2.217,0 4.022,1.791 4.022,3.992 V -3.99 C 83.995,-1.79 82.19,0 79.973,0 Z M 79.973,-55.675 H 0 c -2.428,0 -4.402,1.962 -4.402,4.374 V -3.99 c 0,2.411 1.974,4.372 4.402,4.372 h 79.973 c 2.428,0 4.403,-1.961 4.403,-4.372 v -47.311 c 0,-2.412 -1.975,-4.374 -4.403,-4.374"
             style="fill:#1b181e;fill-opacity:1;fill-rule:nonzero;stroke:none"
             id="path26" /></g><g
           id="g28"
           transform="translate(7.3693,21.9505)"><path
             d="m 0,0 h 80.78 c 1.174,0 2.128,0.955 2.128,2.128 v 48.067 c 0,1.171 -0.954,2.128 -2.128,2.128 H 0 c -1.172,0 -2.127,-0.957 -2.127,-2.128 V 2.128 C -2.127,0.955 -1.172,0 0,0"
             style="fill:#d71920;fill-opacity:1;fill-rule:nonzero;stroke:none"
             id="path30" /></g><path
           d="M 42.81,51.29 H 90.177 V 62.909 H 42.81 Z"
           style="fill:#1b181e;fill-opacity:1;fill-rule:nonzero;stroke:none"
           id="path32" /><g
           id="g34"
           transform="translate(28.6706,37.7625)"><path
             d="m 0,0 -0.693,-2.697 c -1.882,-0.972 -4.109,-1.348 -6.211,-1.348 -6.714,0 -11.799,4.143 -11.799,10.573 0,8.19 5.649,11.924 12.488,11.924 2.072,0 4.581,-0.535 6.401,-1.538 -0.281,-1.067 -0.471,-2.134 -0.721,-3.231 h -0.44 c -1.161,1.693 -3.168,2.887 -5.209,2.887 -5.206,0 -7.311,-4.99 -7.311,-9.602 0,-5.366 2.637,-9.133 7.469,-9.133 1.945,0 4.205,1.005 5.616,2.355 L 0,0"
             style="fill:#ffffff;fill-opacity:1;fill-rule:nonzero;stroke:none"
             id="path36" /></g><g
           id="g38"
           transform="translate(37.0954,34.2537)"><path
             d="M 0,0 C -0.71,0.061 -1.424,0.156 -2.136,0.156 -2.85,0.156 -3.562,0.061 -4.275,0 v 23.561 c 0.713,-0.063 1.425,-0.155 2.139,-0.155 0.712,0 1.426,0.092 2.136,0.155 L 0,0"
             style="fill:#ffffff;fill-opacity:1;fill-rule:nonzero;stroke:none"
             id="path40" /></g><g
           id="g42"
           transform="translate(48.9523,39.3699)"><path
             d="m 0,0 c -0.062,-1.551 -0.465,-3.377 -2.356,-3.377 -1.333,0 -1.705,1.331 -1.705,2.478 0,0.994 0.186,1.921 0.991,2.573 0.902,0.713 2.296,0.992 3.07,1.331 z m 4.278,6.046 c 0,3.099 -3.286,4.153 -5.89,4.153 -1.952,0 -4.277,-0.714 -5.735,-2.077 l 0.402,-1.86 h 0.217 c 0.188,0.557 1.8,1.922 3.782,1.922 C -1.518,8.184 0,6.943 0,5.456 0,4.991 -0.095,4.588 -0.465,4.249 -1.148,3.813 -1.953,3.626 -2.726,3.439 -6.602,2.51 -8.4,1.642 -8.4,-1.303 c 0,-2.697 1.889,-4.091 4.433,-4.091 1.611,0 3.16,0.836 3.967,2.262 0.495,-1.363 1.613,-2.262 3.068,-2.262 0.869,0 2.047,0.495 2.791,0.836 v 0.714 C 4.62,-3.906 4.278,-3.534 4.278,-2.388 v 8.434"
             style="fill:#ffffff;fill-opacity:1;fill-rule:nonzero;stroke:none"
             id="path44" /></g><g
           id="g46"
           transform="translate(64.8605,38.5321)"><path
             d="m 0,0 c 1.331,3.536 2.635,7.1 3.78,10.757 0.405,-0.061 0.808,-0.092 1.241,-0.092 0.403,0 0.807,0.031 1.209,0.092 C 6.261,10.446 6.108,10.231 6.014,10.013 5.424,8.805 4.927,7.627 4.432,6.386 3.037,2.915 1.549,-0.526 0.371,-4.278 c -0.527,0.061 -1.052,0.155 -1.579,0.155 -0.529,0 -1.053,-0.094 -1.583,-0.155 -1.736,5.053 -3.44,9.949 -5.454,15.035 0.805,-0.061 1.578,-0.153 2.387,-0.153 0.807,0 1.579,0.092 2.387,0.153 L 0,0"
             style="fill:#ffffff;fill-opacity:1;fill-rule:nonzero;stroke:none"
             id="path48" /></g><g
           id="g50"
           transform="translate(77.8312,43.2449)"><path
             d="M 0,0 C 0.064,1.643 0.28,4.93 2.542,4.93 4.402,4.93 4.589,1.643 4.589,0 Z m 8.867,-1.488 c 0.341,4.432 -1.49,7.812 -6.356,7.812 -4.494,0 -7.097,-3.101 -7.097,-7.44 0,-5.055 2.635,-8.153 7.78,-8.153 1.518,0 3.194,0.525 4.432,1.394 L 8.309,-6.14 7.936,-5.859 C 6.976,-6.666 5.581,-7.252 4.31,-7.252 c -3.286,0 -4.404,2.57 -4.31,5.764 h 8.867"
             style="fill:#ffffff;fill-opacity:1;fill-rule:nonzero;stroke:none"
             id="path52" /></g><g
           id="g54"
           transform="translate(45.3239,56.1165)"><path
             d="m 0,0 c 0.202,-0.145 0.53,-0.307 0.769,-0.307 0.447,0 0.701,0.294 0.701,0.654 -0.008,0.901 -1.792,0.515 -1.792,2.058 0,0.74 0.58,1.316 1.458,1.316 0.434,0 0.858,-0.159 1.23,-0.381 L 2.024,2.74 c -0.263,0.149 -0.51,0.3 -0.825,0.3 -0.366,0 -0.714,-0.203 -0.714,-0.608 0,-0.889 1.83,-0.607 1.83,-2.053 0,-0.77 -0.599,-1.366 -1.443,-1.366 -0.424,0 -0.821,0.123 -1.187,0.345 L 0,0"
             style="fill:#ffffff;fill-opacity:1;fill-rule:nonzero;stroke:none"
             id="path56" /></g><g
           id="g58"
           transform="translate(51.6965,59.744)"><path
             d="M 0,0 H 0.807 L 0.77,-4.522 h -0.808 z"
             style="fill:#ffffff;fill-opacity:1;fill-rule:nonzero;stroke:none"
             id="path60" /></g><g
           id="g62"
           transform="translate(57.155,56.1165)"><path
             d="m 0,0 c 0.204,-0.145 0.531,-0.307 0.772,-0.307 0.447,0 0.699,0.294 0.699,0.654 -0.008,0.901 -1.791,0.515 -1.791,2.058 0,0.74 0.58,1.316 1.456,1.316 0.437,0 0.858,-0.159 1.232,-0.381 L 2.027,2.74 C 1.76,2.889 1.515,3.04 1.201,3.04 0.835,3.04 0.486,2.837 0.486,2.432 c 0,-0.889 1.831,-0.607 1.831,-2.053 0,-0.77 -0.6,-1.366 -1.446,-1.366 -0.422,0 -0.819,0.123 -1.187,0.345 L 0,0"
             style="fill:#ffffff;fill-opacity:1;fill-rule:nonzero;stroke:none"
             id="path64" /></g><g
           id="g66"
           transform="translate(64.2135,59.0262)"><path
             d="m 0,0 h -1.225 l 0.007,0.718 H 2.017 L 2.014,0 H 0.807 L 0.776,-3.805 h -0.809 z"
             style="fill:#ffffff;fill-opacity:1;fill-rule:nonzero;stroke:none"
             id="path68" /></g><g
           id="g70"
           transform="translate(70.132,59.744)"><path
             d="M 0,0 H 2.334 V -0.718 H 0.806 L 0.794,-1.881 H 2.307 V -2.563 H 0.788 L 0.781,-3.804 h 1.553 v -0.718 h -2.378 z"
             style="fill:#ffffff;fill-opacity:1;fill-rule:nonzero;stroke:none"
             id="path72" /></g><g
           id="g74"
           transform="translate(76.7126,59.744)"><path
             d="M 0,0 H 0.831 L 1.889,-3.615 H 1.901 L 3.113,0 H 3.939 L 4.583,-4.522 3.762,-4.614 3.434,-1.045 H 3.421 L 2.312,-4.522 H 1.477 L 0.474,-1.045 H 0.463 l -0.456,-3.569 -0.775,0.092 z"
             style="fill:#ffffff;fill-opacity:1;fill-rule:nonzero;stroke:none"
             id="path76" /></g><g
           id="g78"
           transform="translate(87.2814,57.1029)"><path
             d="m 0,0 h -1.066 l 0.55,1.766 h 0.01 z M -1.299,-0.679 H 0.222 L 0.65,-1.973 1.439,-1.738 -0.12,2.641 h -0.744 l -1.678,-4.379 0.749,-0.235 z"
             style="fill:#ffffff;fill-opacity:1;fill-rule:nonzero;stroke:none"
             id="path80" /></g></g></g></g></svg>
